<svg xmlns="http://www.w3.org/2000/svg" viewBox="0 0 24 24" width="24" height="24"><title>folder file</title><g class="nc-icon-wrapper" fill="#111111"><path d="M11 8h3.5a1 1 0 0 0 0-2H11a1 1 0 0 0 0 2z"/><path d="M11 12h7.5a1 1 0 0 0 0-2H11a1 1 0 0 0 0 2z"/><path d="M23.707 5.707L18.293.293A1 1 0 0 0 17.586 0H8a2 2 0 0 0-2 2v11.166c0 .2.1.334.25.334h1.5a.25.25 0 0 0 .25-.25v-11A.25.25 0 0 1 8.25 2h8.818a.249.249 0 0 1 .177.073l4.682 4.682a.249.249 0 0 1 .073.177V19.75a.25.25 0 0 1-.25.25h-6a.25.25 0 0 0-.25.25v1.5a.25.25 0 0 0 .25.25H22a2 2 0 0 0 2-2V6.414a1 1 0 0 0-.293-.707z"/><path d="M13 15H6a1 1 0 0 1-.8-.4l-.9-1.2a1 1 0 0 0-.8-.4H1a1 1 0 0 0-1 1v9a1 1 0 0 0 1 1h12a1 1 0 0 0 1-1v-7a1 1 0 0 0-1-1z"/></g></svg>