<?xml version="1.0" encoding="UTF-8"?>
<svg width="24px" height="24px" viewBox="0 0 24 24" version="1.1" xmlns="http://www.w3.org/2000/svg" xmlns:xlink="http://www.w3.org/1999/xlink">
    <title>folder-file</title>
    <g id="Icons" stroke="none" stroke-width="1" fill="none" fill-rule="evenodd">
        <g id="Artboard" transform="translate(-57.000000, -40.000000)" fill="#111111" fill-rule="nonzero">
            <g id="folder-file" transform="translate(69.000000, 52.000000) scale(-1, 1) translate(-69.000000, -52.000000) translate(57.000000, 40.000000)">
                <path d="M11,8 L14.5,8 C15.0522847,8 15.5,7.55228475 15.5,7 C15.5,6.44771525 15.0522847,6 14.5,6 L11,6 C10.4477153,6 10,6.44771525 10,7 C10,7.55228475 10.4477153,8 11,8 Z" id="Path"></path>
                <path d="M11,12 L18.5,12 C19.0522847,12 19.5,11.5522847 19.5,11 C19.5,10.4477153 19.0522847,10 18.5,10 L11,10 C10.4477153,10 10,10.4477153 10,11 C10,11.5522847 10.4477153,12 11,12 Z" id="Path"></path>
                <path d="M23.707,5.707 L18.293,0.293 C18.1055073,0.105450625 17.8511948,0 17.586,0 L8,0 C6.8954305,0 6,0.8954305 6,2 L6,13.166 C6,13.366 6.1,13.5 6.25,13.5 L7.75,13.5 C7.88807119,13.5 8,13.3880712 8,13.25 L8,2.25 C8,2.11192881 8.11192881,2 8.25,2 L17.068,2 C17.1343712,1.99977093 17.1980871,2.02604927 17.245,2.073 L21.927,6.755 C21.9739507,6.80191285 22.0002291,6.86562881 22,6.932 L22,19.75 C22,19.8880712 21.8880712,20 21.75,20 L15.75,20 C15.6119288,20 15.5,20.1119288 15.5,20.25 L15.5,21.75 C15.5,21.8880712 15.6119288,22 15.75,22 L22,22 C23.1045695,22 24,21.1045695 24,20 L24,6.414 C24,6.14880519 23.8945494,5.89449273 23.707,5.707 Z" id="Path"></path>
                <path d="M13,15 L6,15 C5.6852427,15 5.38885438,14.8518058 5.2,14.6 L4.3,13.4 C4.11114562,13.1481942 3.8147573,13 3.5,13 L1,13 C0.44771525,13 0,13.4477153 0,14 L0,23 C0,23.5522847 0.44771525,24 1,24 L13,24 C13.5522847,24 14,23.5522847 14,23 L14,16 C14,15.4477153 13.5522847,15 13,15 Z" id="Path"></path>
            </g>
        </g>
    </g>
</svg>